<svg xmlns="http://www.w3.org/2000/svg" width="25.344" height="25.344"><defs><linearGradient id="a" x1="0%" x2="0%" y1="100%" y2="0%"><stop offset="0%" stop-color="#FF4343"/><stop offset="100%" stop-color="#FF7768"/></linearGradient></defs><path fill-rule="evenodd" d="M2.36 3.563s-1.035 1.058.045 2.138c1.081 1.08 3.806 3.781 3.806 3.781l-3.849 3.849s-.99 1.102-.011 2.081l1.553 1.554s1.125 1.145 2.171.098l3.815-3.767 3.804 3.732s1.114 1.047 2.161 0l1.62-1.549s1.047-1.182.101-2.127l-3.815-3.815 3.676-3.747s1.114-1.114.034-2.194l-1.64-1.76s-1.047-.979-2.093.068l-3.724 3.818-3.826-3.85S4.916.939 4.005 1.851c-.912.912-1.645 1.712-1.645 1.712z"/><path fill="url(#a)" d="M2.36 3.563s-1.035 1.058.045 2.138c1.081 1.08 3.806 3.781 3.806 3.781l-3.849 3.849s-.99 1.102-.011 2.081l1.553 1.554s1.125 1.145 2.171.098l3.815-3.767 3.804 3.732s1.114 1.047 2.161 0l1.62-1.549s1.047-1.182.101-2.127l-3.815-3.815 3.676-3.747s1.114-1.114.034-2.194l-1.64-1.76s-1.047-.979-2.093.068l-3.724 3.818-3.826-3.85S4.916.939 4.005 1.851c-.912.912-1.645 1.712-1.645 1.712z"/></svg>