<svg xmlns="http://www.w3.org/2000/svg" width="37.344" height="34.656"><defs><linearGradient id="a" x1="0%" x2="0%" y1="100%" y2="0%"><stop offset="0%" stop-color="#9ACB15"/><stop offset="100%" stop-color="#B6E026"/></linearGradient></defs><path fill-rule="evenodd" d="M6.801 13.104s-1.077-.654-1.749.786l-1.489 2.098s-.421.899.79 1.554l4.896 4.172s.821.778 1.742.778l1.489-.009s1.648-.065 2.422-1.587l9.287-14.513s.841-.818-.505-1.473l-1.682-.916s-1.346-1.178-2.288.131L11.529 16.18c-.479.786-1.119.139-1.119.139l-3.609-3.215z"/><path stroke="#000" fill="url(#a)" d="M6.801 13.104s-1.077-.654-1.749.786l-1.489 2.098s-.421.899.79 1.554l4.896 4.172s.821.778 1.742.778l1.489-.009s1.648-.065 2.422-1.587l9.287-14.513s.841-.818-.505-1.473l-1.682-.916s-1.346-1.178-2.288.131L11.529 16.18c-.479.786-1.119.139-1.119.139l-3.609-3.215z"/></svg>