<svg xmlns="http://www.w3.org/2000/svg" width="58" height="35"><defs><filter id="a"><feFlood flood-color="#828282" flood-opacity=".4" result="floodOut"/><feComposite operator="atop" in="floodOut" in2="SourceGraphic" result="compOut"/><feBlend in="compOut" in2="SourceGraphic"/></filter><linearGradient id="b" x1="0%" x2="0%" y1="100%" y2="0%"><stop offset="0%" stop-color="#E6E6E6"/><stop offset="100%" stop-color="#F5FAFB"/></linearGradient></defs><g filter="url(#a)"><path fill-rule="evenodd" fill="#FFD40D" d="M53.233 18.869c-.495.508-4.085 6.689-6.225 10.152-.279.74-.666 1.332-1.117 1.747-.181.266-.319.452-.399.529-.266.258-.569.256-.82.064-.058.006-.113.03-.172.03h-38c-1.657 0-3-2.341-3-5.23V8.729c0-2.888 1.343-5.229 3-5.229h38c.137 0 .269.039.401.07.194-.053.406-.006.619.207a.985.985 0 0 1 .078.096c.684.471 1.237 1.369 1.567 2.503 2.076 3.444 5.411 9.138 6.068 9.801.609.614.598 2.077 0 2.692z"/></g><path stroke="#000" fill="url(#b)" d="M53.233 18.869c-.495.508-4.085 6.689-6.225 10.152-.279.74-.666 1.332-1.117 1.747-.181.266-.319.452-.399.529-.266.258-.569.256-.82.064-.058.006-.113.03-.172.03h-38c-1.657 0-3-2.341-3-5.23V8.729c0-2.888 1.343-5.229 3-5.229h38c.137 0 .269.039.401.07.194-.053.406-.006.619.207a.985.985 0 0 1 .078.096c.684.471 1.237 1.369 1.567 2.503 2.076 3.444 5.411 9.138 6.068 9.801.609.614.598 2.077 0 2.692z"/></svg>