<svg xmlns="http://www.w3.org/2000/svg" width="17" height="19"><path fill-rule="evenodd" fill="#FFF" d="M16.038 16.104h-2.389v2.389h-2.388v-.588a40.69 40.69 0 0 1-3.053.104c-5.753 0-7.21-.895-7.398-1.386-.197-.514-.033-4.686 2.999-4.961 0 0 2.299-.317 2.376-2.469a3.865 3.865 0 0 1-.851-1.499.43.43 0 0 1-.196.01c-.334-.05-.799-.675-.904-1.3-.103-.619.188-.9.519-.958C4.473 5.013 3.994.87 8.201.87c4.009 0 3.729 4.143 3.448 4.576.331.058.622.339.519.958-.104.625-.569 1.25-.903 1.3a.434.434 0 0 1-.197-.01 3.885 3.885 0 0 1-.836 1.484c.017.573.196 1.01.443 1.352h-.211v2.389H8.075v3.982h2.389v.796h.797v-1.593H8.872v-2.389h2.389v-2.389h2.388v2.389h2.389v2.389zm-.796.912v-.115h.137c-.044.038-.078.076-.137.115z"/></svg>