<svg xmlns="http://www.w3.org/2000/svg" width="15.531" height="28.469"><defs><filter id="a" x="882.469" y="219.531" width="15.531" height="28.469" filterUnits="userSpaceOnUse"><feOffset result="offset" dx=".5" dy=".866" in="SourceAlpha"/><feGaussianBlur result="blur"/><feFlood result="flood" flood-color="#fff"/><feComposite result="composite" operator="in" in2="blur"/><feBlend result="blend" in="SourceGraphic"/><feGaussianBlur result="blur-2" stdDeviation="1.414" in="SourceAlpha"/><feFlood result="flood-2" flood-opacity=".24"/><feComposite result="composite-2" operator="out" in2="blur-2"/><feOffset result="offset-2" dx="1" dy="1.732"/><feComposite result="composite-3" operator="in" in2="SourceAlpha"/><feBlend result="blend-2" mode="multiply" in2="blend"/></filter></defs><path data-name="Shape 10 copy 2" d="M896.234 234.435l-.366.006a.792.792 0 01-1.036-.427l-1.371-3.3c-.324-.778-.6-1.472-1.059-1.364-.287.068-.9 1.32-.485 3.029l2.978 13.359a.735.735 0 01-.4.961l-.429.006a1.115 1.115 0 01-1.255-.4 67.464 67.464 0 00-2.856-9.727c-.143-.342-.143-.287-.37-.305-.226.018-.12-.037-.262.305a74.65 74.65 0 00-2.963 9.727 1.116 1.116 0 01-1.255.4l-.429-.006a.735.735 0 01-.4-.961l2.978-13.359c.417-1.709-.2-2.961-.486-3.029-.456-.108-.735.586-1.058 1.364l-1.372 3.3a.792.792 0 01-1.036.427l-.366-.006a.689.689 0 01-.427-.939l2.963-7.246c.341-.833.549-1.71 1.589-1.726.82-.012 1.616-.1 1.494-.456a1.642 1.642 0 00-.363-.524l-.015-.014a2.195 2.195 0 01-.257-.244l-.025-.023-.012-.01a2.245 2.245 0 011.7-3.717 2.244 2.244 0 011.7 3.717l-.013.01-.024.023a2.195 2.195 0 01-.257.244l-.015.014a1.646 1.646 0 00-.364.524c-.121.355.675.444 1.5.456 1.04.016 1.248.893 1.589 1.726l2.963 7.246a.689.689 0 01-.428.939z" transform="translate(-882.469 -219.531)" fill="#ff8210" fill-rule="evenodd" filter="url(#a)"/></svg>