<svg xmlns="http://www.w3.org/2000/svg" width="15.75" height="28.781"><defs><filter id="a" x="1105" y="218" width="15.75" height="28.781" filterUnits="userSpaceOnUse"><feOffset result="offset" dx="-.669" dy="-.743" in="SourceAlpha"/><feGaussianBlur result="blur"/><feFlood result="flood" flood-opacity=".3"/><feComposite result="composite" operator="in" in2="blur"/><feBlend result="blend" in="SourceGraphic"/><feGaussianBlur result="blur-2" stdDeviation="1" in="SourceAlpha"/><feFlood result="flood-2" flood-opacity=".14"/><feComposite result="composite-2" operator="out" in2="blur-2"/><feOffset result="offset-2" dx=".5" dy=".866"/><feComposite result="composite-3" operator="in" in2="SourceAlpha"/><feBlend result="blend-2" mode="multiply" in2="blend"/></filter></defs><path data-name="Shape 10 copy 4" d="M1120.23 234.435l-.36.006a.8.8 0 01-1.04-.427s-.57-1.387-1.37-3.3c-.32-.778-.6-1.472-1.06-1.364-.29.068-.9 1.32-.48 3.029l2.98 13.359a.746.746 0 01-.4.961l-.43.006a1.127 1.127 0 01-1.26-.4 66.813 66.813 0 00-2.85-9.727c-.14-.342-.14-.287-.37-.305-.23.018-.12-.037-.26.305a75.008 75.008 0 00-2.97 9.727 1.108 1.108 0 01-1.25.4l-.43-.006a.746.746 0 01-.4-.961l2.98-13.359c.42-1.709-.2-2.961-.48-3.029-.46-.108-.74.586-1.06 1.364-.8 1.91-1.37 3.3-1.37 3.3a.8.8 0 01-1.04.427l-.37-.006a.688.688 0 01-.42-.939l2.96-7.246c.34-.833.55-1.71 1.59-1.726.82-.012 1.61-.1 1.49-.456a1.6 1.6 0 00-.36-.524c-.01 0-.01-.01-.02-.014a2.4 2.4 0 01-.25-.244l-.03-.023a.016.016 0 00-.01-.01 2.245 2.245 0 011.7-3.717 2.245 2.245 0 011.7 3.717.016.016 0 00-.01.01l-.03.023a1.778 1.778 0 01-.26.244s-.01.01-.01.014a1.6 1.6 0 00-.36.524c-.13.355.67.444 1.49.456 1.04.016 1.25.893 1.59 1.726l2.96 7.246a.685.685 0 01-.43.939z" transform="translate(-1105 -218)" fill="#fff" fill-rule="evenodd" filter="url(#a)"/></svg>