<svg xmlns="http://www.w3.org/2000/svg" width="15.719" height="28.75"><defs><filter id="a" x="839" y="218" width="15.719" height="28.75" filterUnits="userSpaceOnUse"><feOffset result="offset" dx="-.669" dy="-.743" in="SourceAlpha"/><feGaussianBlur result="blur"/><feFlood result="flood" flood-opacity=".3"/><feComposite result="composite" operator="in" in2="blur"/><feBlend result="blend" in="SourceGraphic"/><feGaussianBlur result="blur-2" stdDeviation="1" in="SourceAlpha"/><feFlood result="flood-2" flood-opacity=".14"/><feComposite result="composite-2" operator="out" in2="blur-2"/><feOffset result="offset-2" dx=".5" dy=".866"/><feComposite result="composite-3" operator="in" in2="SourceAlpha"/><feBlend result="blend-2" mode="multiply" in2="blend"/></filter></defs><path data-name="Shape 10 copy 3" d="M854.207 234.473l-.366.007a.793.793 0 01-1.036-.428l-1.37-3.3c-.324-.778-.6-1.471-1.059-1.364-.288.068-.9 1.32-.486 3.029l2.293 5.827a.607.607 0 01-.262.668l-1.289.2a1.352 1.352 0 00-1.127.554l-.167 2.1a.282.282 0 00.02.106l-.321 4.281a.588.588 0 01-.588.588h-1.765a.588.588 0 01-.588-.588l-.323-4.306a.306.306 0 00.015-.081l-.166-2.1a1.354 1.354 0 00-1.128-.554l-1.289-.2a.6.6 0 01-.262-.662l2.294-5.833c.417-1.709-.2-2.961-.486-3.029-.456-.107-.734.586-1.058 1.364l-1.371 3.3a.793.793 0 01-1.036.428l-.366-.007a.689.689 0 01-.427-.939l2.963-7.244c.34-.832.548-1.709 1.588-1.725.82-.012 1.615-.1 1.494-.456a1.643 1.643 0 00-.363-.523l-.015-.015a2.2 2.2 0 01-.258-.244l-.024-.023-.013-.01a2.244 2.244 0 011.7-3.716 2.243 2.243 0 011.695 3.716l-.012.01-.025.023a2.195 2.195 0 01-.257.244l-.015.015a1.647 1.647 0 00-.364.523c-.121.355.675.444 1.494.456 1.04.016 1.249.893 1.589 1.725l2.963 7.244a.69.69 0 01-.426.939z" transform="translate(-839 -218)" fill="#fff" fill-rule="evenodd" filter="url(#a)"/></svg>