<svg xmlns="http://www.w3.org/2000/svg" width="15.56" height="28.437"><defs><filter id="a" x="1062.44" y="219.563" width="15.56" height="28.437" filterUnits="userSpaceOnUse"><feOffset result="offset" dx=".5" dy=".866" in="SourceAlpha"/><feGaussianBlur result="blur"/><feFlood result="flood" flood-color="#fff"/><feComposite result="composite" operator="in" in2="blur"/><feBlend result="blend" in="SourceGraphic"/><feGaussianBlur result="blur-2" stdDeviation="1.414" in="SourceAlpha"/><feFlood result="flood-2" flood-opacity=".24"/><feComposite result="composite-2" operator="out" in2="blur-2"/><feOffset result="offset-2" dx="1" dy="1.732"/><feComposite result="composite-3" operator="in" in2="SourceAlpha"/><feBlend result="blend-2" mode="multiply" in2="blend"/></filter></defs><path data-name="Shape 10 copy 4" d="M1076.21 234.473l-.37.007a.785.785 0 01-1.03-.428l-1.38-3.3c-.32-.778-.6-1.471-1.05-1.364-.29.068-.91 1.32-.49 3.029l2.29 5.827a.612.612 0 01-.26.668l-1.29.2a1.367 1.367 0 00-1.13.554l-.16 2.1a.356.356 0 00.02.106l-.32 4.281a.593.593 0 01-.59.588h-1.77a.584.584 0 01-.58-.588l-.33-4.306a.224.224 0 00.02-.081l-.17-2.1a1.353 1.353 0 00-1.13-.554l-1.28-.2a.607.607 0 01-.27-.662l2.3-5.833c.41-1.709-.2-2.961-.49-3.029-.45-.107-.73.586-1.06 1.364-.79 1.909-1.37 3.3-1.37 3.3a.788.788 0 01-1.03.428l-.37-.007a.692.692 0 01-.43-.939s1.48-3.62 2.97-7.244c.34-.832.54-1.709 1.58-1.725.82-.012 1.62-.1 1.5-.456a1.622 1.622 0 00-.37-.523.014.014 0 00-.01-.015 2.488 2.488 0 01-.26-.244c-.01-.008-.01-.015-.02-.023a.016.016 0 01-.01-.01 2.194 2.194 0 01-.55-1.47 2.241 2.241 0 012.24-2.246h.01a2.244 2.244 0 011.69 3.716.016.016 0 01-.01.01.041.041 0 00-.02.023 2.488 2.488 0 01-.26.244c-.01 0-.01.01-.02.015a1.752 1.752 0 00-.36.523c-.12.355.67.444 1.49.456 1.04.016 1.25.893 1.59 1.725l2.96 7.244a.688.688 0 01-.42.939z" transform="translate(-1062.44 -219.563)" fill="#ff8210" fill-rule="evenodd" filter="url(#a)"/></svg>